<svg fill="#c72e31" xmlns="http://www.w3.org/2000/svg" xmlns:xlink="http://www.w3.org/1999/xlink" xml:space="preserve" version="1.1" viewBox="0 0 267 267" x="0px" y="0px" fill-rule="evenodd" clip-rule="evenodd"><defs><style type="text/css">
</style></defs><g><path d="M133 4c72,0 129,58 129,129 0,72 -57,129 -129,129 -71,0 -129,-57 -129,-129 0,-71 58,-129 129,-129zm-94 191c18,-25 39,-49 71,-31 18,10 30,9 49,-1 29,-17 53,10 69,32 11,-17 18,-39 18,-62 0,-62 -50,-113 -113,-113 -62,0 -113,51 -113,113 0,23 7,45 19,62zm94 -142c28,0 50,22 50,50 0,27 -22,49 -50,49 -27,0 -49,-22 -49,-49 0,-28 22,-50 49,-50z"></path></g></svg>