<svg fill="#000000" xmlns="http://www.w3.org/2000/svg" xmlns:xlink="http://www.w3.org/1999/xlink" version="1.1" viewBox="0 0 100 100" enable-background="new 0 0 100 100" xml:space="preserve"><path d="M39.886,51.303l-2.77,10.369c-0.241,0.912,0.301,1.451,1.213,1.207l10.367-2.768c1.555-0.414,3.756-1.687,4.894-2.82  l30.568-30.572L73.277,15.84l-30.57,30.572C41.568,47.547,40.3,49.748,39.886,51.303z"></path><path d="M92.744,18.131c3.007-3.006,3.009-7.875,0.002-10.879c-3.003-3.004-7.877-3.004-10.881,0l-5.174,5.174L87.57,23.305  L92.744,18.131z"></path><path d="M89.707,34.559c-2.924,0-5.294,2.371-5.294,5.295v44.029c0,0.291-0.237,0.529-0.529,0.529H16.118  c-0.292,0-0.529-0.238-0.529-0.529V16.117c0-0.293,0.237-0.529,0.529-0.529h44.03c2.922,0,5.293-2.371,5.293-5.293  C65.441,7.369,63.07,5,60.148,5H15.588C9.75,5,5,9.75,5,15.588v68.824C5,90.25,9.75,95,15.588,95h68.824  C90.25,95,95,90.25,95,84.413V39.854C95,36.93,92.631,34.559,89.707,34.559z"></path></svg>