<svg fill="#000000" xmlns="http://www.w3.org/2000/svg" viewBox="0 0 26.458333 26.458334" version="1.1"><g transform="translate(0,-270.54165)"><path d="M 8.9394531 2.9433594 A 6.0005998 6.0005998 0 0 0 4.7539062 13.240234 L 41.513672 50 L 4.7539062 86.757812 A 6.0027602 6.0027602 0 1 0 13.242188 95.246094 L 50 58.486328 L 86.759766 95.246094 A 6.0005998 6.0005998 0 1 0 95.240234 86.757812 L 58.482422 50 L 95.240234 13.240234 A 6.0005998 6.0005998 0 0 0 90.878906 2.9433594 A 6.0005998 6.0005998 0 0 0 86.759766 4.7597656 L 50 41.517578 L 13.242188 4.7597656 A 6.0005998 6.0005998 0 0 0 8.9394531 2.9433594 z " transform="matrix(0.26458333,0,0,0.26458333,0,270.54165)"></path></g></svg>