<?xml version="1.0" encoding="utf-8"?><svg version="1.1" id="Réteg_1" xmlns="http://www.w3.org/2000/svg" xmlns:xlink="http://www.w3.org/1999/xlink" viewBox="0 0 411.6 64.5" style="enable-background:new 0 0 411.6 64.5;" xml:space="preserve">
<path fill="#FFFFFF" class="st0" d="M45.7,33.1l-1,3.1c1.5,4.9,1.5,8,1,8.7c0,0.1-0.1,0.1-0.1,0.1c-0.4,0-1.4-0.6-2.9-2.5l2.1-6.4
	c-0.3-0.8-0.5-1.6-0.8-2.6c-1.8-4.8-3.9-8.5-5.6-10.9c-0.3,0.3-0.7,0.6-1.2,0.9c-1.1,0.6-2.4,0.7-3.7,0.3c-0.3-0.1-0.5-0.2-0.7-0.3
	l0,0c-1.9-0.9-2.9-3-2.6-5c0.3-1.6,1.2-2.9,2.6-3.6c1.4-0.7,3.1-0.7,4.4,0c1.9,0.9,2.9,3,2.6,5.1c-0.1,0.3-0.1,0.7-0.3,1
	C41.6,24,44,28.5,45.7,33.1L45.7,33.1l2.7-8.5c0.3-1,0.2-2-0.3-3L41.3,8.2c-1-1.9-3.4-2.7-5.3-1.7l-13.4,6.8c-1,0.5-1.7,1.3-2,2.3
	l-9,28c-0.7,2.1,0.5,4.4,2.6,5l20.4,6.6c1,0.3,2.1,0.3,3-0.3c0.9-0.5,1.7-1.3,2-2.3l2.5-7.7c1,1.2,1.9,1.8,2.8,2.1
	c0.3,0.1,0.5,0.2,0.8,0.1c0.7,0,1.3-0.3,1.7-0.8C48.9,44.1,47.5,37.9,45.7,33.1z"/>
<path fill="#FFFFFF" class="st0" d="M71.1,18.7h11.1L92.3,49h-9.2l-1.4-4.8H71.5L70.2,49h-9.1L71.1,18.7z M79.6,37.1l-3.1-11.7l-3,11.7H79.6z"/>
<path fill="#FFFFFF" class="st0" d="M95,18.7h14.9c1.9,0,3.6,0.3,5.1,0.8s2.7,1.6,3.8,3.2c1,1.6,1.5,3.9,1.5,6.9c0,4.4-0.9,7.3-2.8,8.9
	s-4.2,2.3-7,2.3c-1.4,0-2.8-0.1-4.2-0.4s-2.2-0.4-2.4-0.4v9H95V18.7z M109,33.6c0.9,0,1.5-0.3,1.9-1c0.4-0.6,0.5-1.6,0.5-3
	c0-1.3-0.2-2.2-0.6-2.9c-0.4-0.6-1-1-1.8-1h-5.1v7.8L109,33.6L109,33.6z"/>
<path fill="#FFFFFF" class="st0" d="M124,18.7h14.5c3.2,0,5.8,0.8,7.6,2.3s2.7,4.2,2.7,7.9c0,2.3-0.4,4.1-1.2,5.4c-0.8,1.2-1.9,2.2-3.4,3l5.9,11.8
	h-9l-4.8-10.4h-3.4V49H124V18.7z M136.9,32.3c1,0,1.8-0.3,2.2-0.8c0.5-0.5,0.7-1.4,0.7-2.6s-0.2-2-0.7-2.4c-0.5-0.5-1.2-0.7-2.3-0.7
	h-4v6.5H136.9z"/>
<path fill="#FFFFFF" class="st0" d="M158.7,48c-2.1-0.8-3.6-2.3-4.7-4.6c-1.1-2.2-1.6-5.4-1.6-9.6s0.5-7.4,1.6-9.6s2.6-3.8,4.7-4.6
	c2.1-0.8,4.8-1.2,8.3-1.2c3.4,0,6.2,0.4,8.3,1.2c2.1,0.8,3.6,2.3,4.7,4.6c1.1,2.2,1.6,5.4,1.6,9.6s-0.5,7.4-1.6,9.6
	c-1.1,2.2-2.6,3.8-4.7,4.6c-2.1,0.8-4.8,1.2-8.3,1.2S160.8,48.8,158.7,48z M170.5,41.5c0.8-0.4,1.3-1.3,1.6-2.4
	c0.3-1.2,0.5-2.9,0.5-5.2c0-2.4-0.2-4.2-0.5-5.3s-0.9-1.9-1.6-2.4c-0.8-0.4-2-0.6-3.6-0.6s-2.8,0.2-3.6,0.6s-1.3,1.2-1.6,2.4
	c-0.3,1.2-0.5,2.9-0.5,5.3c0,2.3,0.2,4.1,0.5,5.2c0.3,1.2,0.9,2,1.6,2.4c0.8,0.4,2,0.7,3.5,0.7C168.6,42.1,169.7,41.9,170.5,41.5z
	 M167.8,10.9h7l-4.9,5.8h-5.2L167.8,10.9z"/>
<path fill="#FFFFFF" class="st0" d="M185.7,18.7h8.9v11.7h10.1V18.7h8.9V49h-8.9V37.4h-10.1V49h-8.9V18.7z"/>
<path fill="#FFFFFF" class="st0" d="M218.6,18.7h8.9V49h-8.9V18.7z"/>
<path fill="#FFFFFF" class="st0" d="M232.5,18.7H247c3.2,0,5.8,0.8,7.6,2.3s2.7,4.2,2.7,7.9c0,2.3-0.4,4.1-1.2,5.4c-0.8,1.2-1.9,2.2-3.4,3l5.9,11.8
	h-9l-4.8-10.4h-3.4V49h-8.9L232.5,18.7L232.5,18.7z M245.4,32.3c1,0,1.8-0.3,2.2-0.8c0.5-0.5,0.7-1.4,0.7-2.6s-0.2-2-0.7-2.4
	c-0.5-0.5-1.2-0.7-2.3-0.7h-4v6.5H245.4z"/>
<path fill="#FFFFFF" class="st0" d="M261.8,18.7h15c4.6,0,7.8,1.3,9.6,4c1.8,2.7,2.7,6.4,2.7,11.2c0,5.3-1,9.1-3,11.5S281,49,276.8,49h-15
	L261.8,18.7L261.8,18.7z M275.9,41.9c1.6,0,2.8-0.6,3.4-1.8s0.9-3.3,0.9-6.2c0-2.3-0.2-4-0.5-5.2s-0.8-1.9-1.4-2.3s-1.4-0.6-2.4-0.6
	h-5.2v16.1H275.9z"/>
<path fill="#FFFFFF" class="st0" d="M293.3,42V26.2c0-2.7,0.8-4.6,2.5-5.8c1.7-1.2,3.7-1.7,6-1.7c5.5,0,10.5,0.2,15,0.6V26h-12.3
	c-1.6,0-2.3,0.6-2.3,1.8v2.5l12.3,0.4V37l-12.3,0.4v2.3c0,0.7,0.2,1.2,0.5,1.6c0.4,0.4,0.8,0.5,1.4,0.5h12.6v6.7
	c-1.9,0.2-4.2,0.4-6.8,0.6c-2.7,0.1-5.2,0.2-7.7,0.2C296.3,49.2,293.3,46.8,293.3,42z"/>
<path fill="#FFFFFF" class="st0" d="M327.7,25.8h-8.6v-7.1h26v7.1h-8.6V49h-8.9V25.8H327.7z"/>
<path fill="#FFFFFF" class="st0" d="M347.9,42V26.2c0-2.7,0.8-4.6,2.5-5.8c1.7-1.2,3.7-1.7,6-1.7c5.5,0,10.5,0.2,15,0.6V26h-12.3
	c-1.6,0-2.3,0.6-2.3,1.8v2.5l12.3,0.4V37l-12.3,0.4v2.3c0,0.7,0.2,1.2,0.5,1.6c0.4,0.4,0.8,0.5,1.4,0.5h12.6v6.7
	c-1.9,0.2-4.2,0.4-6.8,0.6c-2.7,0.1-5.2,0.2-7.7,0.2C350.9,49.2,347.9,46.8,347.9,42z M360.6,10.9h7l-4.9,5.8h-5.2L360.6,10.9z"/>
<path fill="#FFFFFF" class="st0" d="M375.3,48v-6.3c3.1,0.2,6.5,0.4,10.5,0.4c1.6,0,2.7-0.2,3.4-0.5c0.7-0.3,1.1-0.8,1.1-1.6v-0.5
	c0-0.6-0.2-1-0.7-1.3s-1-0.5-1.7-0.5h-2.4c-3.6,0-6.3-0.7-8.1-2.1c-1.8-1.4-2.7-3.7-2.7-6.9v-1.3c0-3,1-5.2,3-6.7s4.9-2.2,8.7-2.2
	c3.4,0,6.9,0.4,10.6,1.2V26c-3.4-0.2-6.6-0.4-9.5-0.4c-1.5,0-2.6,0.2-3.3,0.5c-0.7,0.3-1.1,0.9-1.1,1.8v0.4c0,1.4,1,2.1,3,2.1h3
	c3.1,0,5.5,0.8,7.1,2.3c1.7,1.5,2.5,3.5,2.5,6V40c0,2.5-0.5,4.4-1.5,5.8c-1,1.4-2.4,2.3-4.1,2.8c-1.8,0.5-4.1,0.8-6.9,0.8
	C382.3,49.2,378.7,48.8,375.3,48z"/>
</svg>
