<svg fill="#ffffff" xmlns="http://www.w3.org/2000/svg" xmlns:xlink="http://www.w3.org/1999/xlink" version="1.1" viewBox="0 0 1024 1024" style="enable-background:new 0 0 1024 1024;" xml:space="preserve"><g><path d="M517.5,363.3c-0.7-31.5-20.4-58.7-49.8-69.8c-28.3-10.7-63-1.4-82.2,21.9c-20.2,24.5-24,59.4-7.6,87   c16.4,27.5,48.3,41,79.5,35.3c34.5-6.4,59.3-38.1,60.1-72.5v-0.1c0-0.3,0-0.5,0-0.8v-0.2C517.5,363.9,517.5,363.6,517.5,363.3z"></path><path d="M949.3,244.2c0-2.7,0-5.5,0-8.2c-0.5-29-22.3-51.9-50.7-54.3c-1.1-0.1-2.3-0.2-3.4-0.2H132.9   c-1.8,0-3.6,0-5.4,0c-29.6,1.5-52.3,25-52.7,54.7c-0.1,9.6,0,19.2,0,28.8v495.4c0,9.3-0.2,18.5,0,27.8c0.5,30.1,24,53.8,54.1,54.5   c1.5,0,3,0,4.5,0h746.1c7.5,0,14.9,0.3,22.3-0.7c27.4-3.7,47.2-26.6,47.4-54.2c0-3.3,0-6.5,0-9.8V244.2z M889.3,250v250.4   c-22.3-27.9-44.6-55.7-66.9-83.6c-21.6-27-42.6-54.8-65-81.2c-0.4-0.4-0.7-0.9-1-1.3c-4.8-6-16.4-5.7-21.2,0   c-31.7,37.1-63.3,74.3-94.9,111.4c-62.9,73.9-125.7,147.7-188.4,221.7c-2.1,2.5-4.3,5-6.4,7.5c-11.8-14.8-23.6-29.5-35.4-44.3   c-24.2-30.2-48.3-60.4-72.5-90.6c-5.6-7-11.2-13.9-16.7-20.9c-4.8-6-16.4-5.7-21.2,0c-26,30.5-51.9,60.9-77.9,91.4   c-23.4,27.5-46.8,55-70.2,82.6c-5.6,6.6-11.3,13.3-16.9,19.9V303c0-20.6-0.2-41.1,0-61.7c4.7,0,9.4,0.2,14,0.2h715.1   c8.5,0,17,0.1,25.5,0C889.3,244.3,889.3,247.1,889.3,250z"></path></g></svg>